<?xml version="1.0" encoding="UTF-8"?>
<svg id="Layer_2" data-name="Layer 2" xmlns="http://www.w3.org/2000/svg" viewBox="0 0 349.26 170.46">
  <defs>
    <style>
      .cls-1 {
        fill: #fff;
        stroke-width: 0px;
      }
    </style>
  </defs>
  <g id="Layer_1-2" data-name="Layer 1">
    <g>
      <path class="cls-1" d="m32.08,34.82h-13.53v-4.15c0-1.94-.17-3.17-.52-3.7-.35-.53-.92-.8-1.73-.8-.88,0-1.54.36-1.99,1.07-.45.72-.67,1.8-.67,3.25,0,1.87.25,3.28.76,4.22.48.95,1.85,2.09,4.12,3.42,6.48,3.85,10.57,7.01,12.25,9.48,1.68,2.47,2.53,6.45,2.53,11.94,0,3.99-.47,6.93-1.4,8.82-.93,1.89-2.74,3.48-5.42,4.76-2.68,1.28-5.79,1.92-9.34,1.92-3.9,0-7.23-.74-9.98-2.21-2.76-1.48-4.56-3.36-5.42-5.64-.85-2.28-1.28-5.52-1.28-9.72v-3.67h13.53v6.82c0,2.1.19,3.45.57,4.05.38.6,1.06.9,2.02.9s1.69-.38,2.16-1.14.71-1.89.71-3.39c0-3.3-.45-5.46-1.35-6.47-.92-1.02-3.2-2.71-6.82-5.09-3.62-2.4-6.02-4.14-7.2-5.22-1.18-1.08-2.15-2.58-2.92-4.5-.77-1.91-1.16-4.36-1.16-7.34,0-4.29.55-7.43,1.64-9.41,1.1-1.98,2.87-3.54,5.31-4.65,2.44-1.12,5.4-1.68,8.86-1.68,3.78,0,7.01.61,9.67,1.83,2.66,1.22,4.43,2.76,5.29,4.62s1.3,5.01,1.3,9.46v2.21Z"/>
      <path class="cls-1" d="m63.04,17.87l8.33,56.02h-14.89l-.78-10.07h-5.21l-.88,10.07h-15.06l7.43-56.02h21.06Zm-7.72,36.02c-.74-6.35-1.48-14.19-2.22-23.53-1.48,10.73-2.42,18.57-2.8,23.53h5.01Z"/>
      <path class="cls-1" d="m118.79,17.87v56.02h-12.73l-.02-37.82-5.07,37.82h-9.03l-5.35-36.96-.02,36.96h-12.73V17.87h18.85c.56,3.37,1.14,7.34,1.73,11.91l2.07,14.25,3.35-26.16h18.95Z"/>
      <path class="cls-1" d="m124.64,17.87h14.67c3.97,0,7.02.31,9.15.93,2.13.62,3.74,1.52,4.81,2.7,1.07,1.18,1.8,2.6,2.18,4.27.38,1.67.57,4.26.57,7.77v4.88c0,3.58-.37,6.18-1.11,7.82-.74,1.64-2.09,2.9-4.07,3.77-1.97.88-4.55,1.32-7.73,1.32h-3.91v22.56h-14.57V17.87Zm14.57,9.58v14.26c.42.02.77.03,1.07.03,1.34,0,2.27-.33,2.79-.99.52-.66.78-2.02.78-4.1v-4.6c0-1.91-.3-3.16-.9-3.74-.6-.58-1.85-.86-3.74-.86Z"/>
      <path class="cls-1" d="m174.78,17.87v44.81h8.86v11.21h-23.43V17.87h14.57Z"/>
      <path class="cls-1" d="m187.17,17.87h24.29v11.21h-9.72v10.62h9.1v10.66h-9.1v12.32h10.69v11.21h-25.26V17.87Z"/>
      <path class="cls-1" d="m32.08,97.19h-13.53v-4.15c0-1.94-.17-3.17-.52-3.7-.35-.53-.92-.8-1.73-.8-.88,0-1.54.36-1.99,1.07-.45.72-.67,1.8-.67,3.25,0,1.87.25,3.28.76,4.22.48.95,1.85,2.09,4.12,3.42,6.48,3.85,10.57,7.01,12.25,9.48,1.68,2.47,2.53,6.45,2.53,11.94,0,3.99-.47,6.93-1.4,8.82-.93,1.89-2.74,3.48-5.42,4.76-2.68,1.28-5.79,1.92-9.34,1.92-3.9,0-7.23-.74-9.98-2.21-2.76-1.48-4.56-3.36-5.42-5.64-.85-2.28-1.28-5.52-1.28-9.72v-3.67h13.53v6.82c0,2.1.19,3.45.57,4.05.38.6,1.06.9,2.02.9s1.69-.38,2.16-1.14c.47-.76.71-1.89.71-3.39,0-3.3-.45-5.46-1.35-6.47-.92-1.01-3.2-2.71-6.82-5.09-3.62-2.4-6.02-4.14-7.2-5.23-1.18-1.08-2.15-2.58-2.92-4.5-.77-1.91-1.16-4.36-1.16-7.34,0-4.29.55-7.43,1.64-9.41,1.1-1.98,2.87-3.53,5.31-4.65,2.44-1.12,5.4-1.68,8.86-1.68,3.78,0,7.01.61,9.67,1.83,2.66,1.22,4.43,2.76,5.29,4.62.87,1.86,1.3,5.01,1.3,9.46v2.21Z"/>
      <path class="cls-1" d="m71.87,104.63h-14.57v-9.74c0-2.83-.16-4.6-.47-5.3-.31-.7-1-1.05-2.06-1.05-1.2,0-1.96.43-2.28,1.28-.32.85-.48,2.7-.48,5.54v26.02c0,2.72.16,4.5.48,5.33.32.83,1.05,1.25,2.18,1.25s1.79-.42,2.13-1.25c.33-.83.5-2.79.5-5.86v-7.04h14.57v2.18c0,5.8-.41,9.91-1.23,12.34s-2.63,4.55-5.43,6.38c-2.8,1.82-6.26,2.74-10.36,2.74s-7.79-.77-10.55-2.32c-2.77-1.55-4.6-3.69-5.5-6.42-.9-2.73-1.35-6.85-1.35-12.34v-16.37c0-4.04.14-7.06.42-9.08s1.1-3.96,2.47-5.83c1.37-1.87,3.28-3.34,5.71-4.41,2.43-1.07,5.23-1.61,8.39-1.61,4.29,0,7.83.83,10.62,2.49,2.79,1.66,4.62,3.73,5.5,6.2.88,2.48,1.31,6.33,1.31,11.56v5.32Z"/>
      <path class="cls-1" d="m77.09,80.23h10.31c6.87,0,11.53.27,13.96.8,2.43.53,4.42,1.89,5.95,4.07s2.3,5.66,2.3,10.43c0,4.36-.54,7.29-1.63,8.79-1.08,1.5-3.22,2.4-6.4,2.7,2.88.72,4.82,1.67,5.81,2.87.99,1.2,1.61,2.3,1.85,3.3.24,1,.36,3.77.36,8.29v14.78h-13.53v-18.62c0-3-.24-4.86-.71-5.57-.47-.71-1.71-1.07-3.72-1.07v25.26h-14.57v-56.02Zm14.57,9.58v12.46c1.64,0,2.79-.23,3.44-.67.66-.45.99-1.91.99-4.38v-3.08c0-1.78-.32-2.94-.95-3.5s-1.79-.83-3.48-.83Z"/>
      <path class="cls-1" d="m140.44,80.23l8.33,56.02h-14.89l-.78-10.07h-5.21l-.88,10.07h-15.06l7.43-56.02h21.06Zm-7.72,36.02c-.74-6.35-1.48-14.19-2.22-23.53-1.48,10.73-2.42,18.57-2.8,23.53h5.01Z"/>
      <path class="cls-1" d="m176.68,80.23v11.21h-8.65v44.81h-14.57v-44.81h-8.62v-11.21h31.83Z"/>
      <path class="cls-1" d="m214.02,104.63h-14.57v-9.74c0-2.83-.16-4.6-.47-5.3-.31-.7-1-1.05-2.06-1.05-1.2,0-1.96.43-2.28,1.28-.32.85-.48,2.7-.48,5.54v26.02c0,2.72.16,4.5.48,5.33.32.83,1.05,1.25,2.18,1.25s1.79-.42,2.13-1.25c.33-.83.5-2.79.5-5.86v-7.04h14.57v2.18c0,5.8-.41,9.91-1.23,12.34-.82,2.43-2.63,4.55-5.43,6.38-2.8,1.82-6.26,2.74-10.36,2.74s-7.79-.77-10.55-2.32c-2.77-1.55-4.6-3.69-5.5-6.42-.9-2.73-1.35-6.85-1.35-12.34v-16.37c0-4.04.14-7.06.42-9.08s1.1-3.96,2.47-5.83c1.37-1.87,3.28-3.34,5.71-4.41,2.43-1.07,5.23-1.61,8.39-1.61,4.29,0,7.83.83,10.62,2.49,2.79,1.66,4.62,3.73,5.5,6.2.88,2.48,1.31,6.33,1.31,11.56v5.32Z"/>
      <path class="cls-1" d="m252.74,80.23v56.02h-14.57v-23.53h-4.36v23.53h-14.57v-56.02h14.57v20.04h4.36v-20.04h14.57Z"/>
      <path class="cls-1" d="m258.59,80.23h24.29v11.21h-9.72v10.62h9.1v10.66h-9.1v12.32h10.69v11.21h-25.26v-56.02Z"/>
      <path class="cls-1" d="m288.03,80.23h10.31c6.87,0,11.53.27,13.96.8,2.43.53,4.42,1.89,5.95,4.07s2.3,5.66,2.3,10.43c0,4.36-.54,7.29-1.63,8.79-1.08,1.5-3.22,2.4-6.4,2.7,2.88.72,4.82,1.67,5.81,2.87.99,1.2,1.61,2.3,1.85,3.3.24,1,.36,3.77.36,8.29v14.78h-13.53v-18.62c0-3-.24-4.86-.71-5.57-.47-.71-1.71-1.07-3.72-1.07v25.26h-14.57v-56.02Zm14.57,9.58v12.46c1.64,0,2.79-.23,3.44-.67.66-.45.99-1.91.99-4.38v-3.08c0-1.78-.32-2.94-.95-3.5-.63-.55-1.79-.83-3.48-.83Z"/>
    </g>
    <g>
      <path class="cls-1" d="m280.09,0c-34.65,0-62.73,28.09-62.73,62.73,0,3.38.28,6.69.79,9.93h29.97c-3.1-3.79-4.96-8.62-4.96-13.9,0-12.13,9.84-21.97,21.97-21.97s21.97,9.84,21.97,21.97c0,5.27-1.86,10.11-4.96,13.9h15.79c1.88-4.25,2.93-8.95,2.93-13.9,0-19-15.41-34.41-34.41-34.41-10.54,0-19.97,4.74-26.28,12.21,6.6-9.47,17.57-15.68,29.99-15.68,20.17,0,36.53,16.35,36.53,36.53,0,5.45-1.2,10.62-3.35,15.27,3.94.14,8.16.96,12.05,2.63,1.98-5.14,3.08-10.72,3.08-16.55,0-25.44-20.62-46.06-46.06-46.06-11.73,0-22.43,4.39-30.56,11.61,9.05-9.42,21.76-15.29,35.86-15.29,27.47,0,49.73,22.27,49.73,49.73,0,7.61-1.71,14.81-4.77,21.26,1.93,1.83,3.58,4.05,4.78,6.71.65,1.45,2.02,4.49,2.77,13.71,7.91-10.5,12.6-23.55,12.6-37.71,0-34.65-28.09-62.73-62.73-62.73Z"/>
      <path class="cls-1" d="m265.14,54.79c-2.19,0-3.97,1.78-3.97,3.97s1.78,3.97,3.97,3.97,3.97-1.78,3.97-3.97-1.78-3.97-3.97-3.97Z"/>
    </g>
    <path class="cls-1" d="m79.38,158.83c1.72.25,3.11.51,3.97.69-1.12.87-2.25,1.6-3.36,2.21-11.9,6.53-25.91,1.67-31.24-.51-.31.12-.77.29-1.34.51-3.56,1.37-5.78,2.35-7.1,2.9-3.85,1.61-9.07,3.79-10,2.53-.23-.31-.27-.92.47-2.24.66-1.17,1.54-2.2,2.59-3.04,2.08-1.68,3.93-2.31,5.32-2.55,1.96-.34,2.26.21,8.71.32,2,.04,3.37,0,4.93-.14,2.23-.21,3.86-.56,4.45-.69-.59-.12-2.21-.48-4.45-.69-1.56-.15-2.93-.17-4.93-.14-6.45.12-6.75.66-8.71.32-1.39-.24-3.24-.87-5.32-2.55-1.04-.85-1.93-1.87-2.59-3.04-.74-1.32-.7-1.93-.47-2.24.93-1.25,6.14.92,10,2.53,1.32.55,3.53,1.53,7.1,2.9.56.22,1.03.39,1.34.51,5.33-2.18,19.34-7.04,31.24-.51,1.11.61,2.24,1.34,3.36,2.21-.87.18-2.26.44-3.97.69Z"/>
    <g>
      <path class="cls-1" d="m102.74,163.75c.13,0,.23.05.3.14l1.02,1.5s.05.09.05.15c0,.08-.02.15-.06.23-.04.07-.1.14-.18.19-.66.56-1.47,1-2.41,1.32s-1.86.49-2.76.49c-1.62,0-3.1-.39-4.46-1.17-1.36-.78-2.43-1.84-3.22-3.18-.79-1.34-1.18-2.81-1.18-4.41s.39-3.08,1.18-4.42c.79-1.34,1.86-2.4,3.22-3.18s2.84-1.17,4.46-1.17c.86,0,1.76.17,2.71.5.95.33,1.78.77,2.51,1.32.15.12.23.26.23.39,0,.07-.02.13-.06.19l-1.04,1.47c-.06.1-.16.15-.29.15-.12,0-.23-.05-.35-.14-.56-.42-1.17-.75-1.83-.99-.65-.24-1.28-.37-1.88-.37-1.14,0-2.19.28-3.14.84-.95.56-1.71,1.31-2.26,2.27-.56.95-.84,2-.84,3.15s.28,2.18.84,3.13c.56.95,1.31,1.7,2.27,2.26.95.55,2,.83,3.14.83.6,0,1.23-.12,1.88-.36.65-.24,1.25-.57,1.79-.99.12-.08.25-.13.37-.13Z"/>
      <path class="cls-1" d="m121.32,167.16c0,.1-.03.18-.1.23-.07.05-.16.08-.28.08h-1.95c-.11,0-.21-.03-.3-.1-.09-.07-.15-.16-.19-.28l-1.26-3.32h-7.47l-1.25,3.31c-.04.12-.11.21-.2.28-.1.07-.2.1-.31.1h-1.94c-.25,0-.37-.1-.37-.29,0-.07.02-.14.05-.21l6.52-16.07c.05-.12.12-.22.21-.29.1-.07.2-.1.32-.1h1.44c.12,0,.22.04.32.11s.16.17.2.28l6.52,16.07c.03.09.05.16.05.2Zm-4.93-5.62l-2.89-7.6-2.89,7.6h5.77Z"/>
      <path class="cls-1" d="m135.51,167.14c0,.09-.03.17-.09.23-.06.06-.14.09-.24.09h-2.12c-.11,0-.2-.03-.27-.08-.07-.05-.15-.15-.23-.28l-2.82-5.35h-3.44v5.27c0,.14-.04.25-.11.32-.07.08-.18.12-.32.12h-1.75c-.28,0-.42-.15-.42-.44v-16.07c0-.13.04-.24.12-.32.08-.08.18-.12.3-.12h5.43c1.13,0,2.14.24,3.03.71.89.47,1.58,1.14,2.08,1.99.49.86.74,1.84.74,2.95s-.27,2.15-.81,3.02-1.28,1.53-2.22,1.98l3.11,5.81c.03.05.05.11.05.17Zm-9.22-7.86h3.25c.62,0,1.17-.13,1.66-.41.49-.27.87-.64,1.15-1.11.27-.47.41-1,.41-1.6s-.14-1.16-.41-1.63c-.27-.48-.66-.85-1.15-1.12-.49-.27-1.05-.41-1.66-.41h-3.25v6.29Z"/>
      <path class="cls-1" d="m147.15,151.21c.89.47,1.58,1.14,2.07,1.99.49.86.74,1.84.74,2.96s-.25,2.07-.74,2.92c-.49.85-1.18,1.51-2.07,1.98-.89.47-1.9.7-3.03.7h-3.06v5.25c0,.14-.04.25-.11.32-.07.08-.18.12-.32.12h-1.75c-.28,0-.42-.15-.42-.44v-16.07c0-.13.04-.24.12-.32.08-.08.18-.12.3-.12h5.24c1.14,0,2.15.24,3.03.71Zm-1.37,7.65c.49-.27.88-.64,1.15-1.11.28-.47.42-1,.42-1.6s-.14-1.14-.41-1.62c-.27-.48-.66-.85-1.15-1.12s-1.05-.41-1.67-.41h-3.06v6.27h3.06c.62,0,1.17-.13,1.66-.41Z"/>
      <path class="cls-1" d="m171.84,167.16c0,.1-.03.18-.1.23-.07.05-.16.08-.28.08h-1.95c-.11,0-.21-.03-.3-.1-.09-.07-.15-.16-.19-.28l-1.26-3.32h-7.47l-1.25,3.31c-.04.12-.11.21-.2.28-.1.07-.2.1-.31.1h-1.94c-.25,0-.37-.1-.37-.29,0-.07.02-.14.05-.21l6.52-16.07c.05-.12.12-.22.21-.29.1-.07.2-.1.32-.1h1.44c.12,0,.22.04.32.11s.16.17.2.28l6.52,16.07c.03.09.05.16.05.2Zm-4.93-5.62l-2.89-7.6-2.89,7.6h5.77Z"/>
      <path class="cls-1" d="m183.1,157.74v9.41c0,.1-.03.18-.09.24-.06.06-.14.09-.25.09h-1.48c-.18,0-.28-.07-.31-.22l-.2-1.03c-.37.49-.83.87-1.39,1.15-.55.28-1.15.42-1.78.42-.83,0-1.55-.19-2.16-.56-.61-.37-1.08-.9-1.4-1.59-.32-.69-.49-1.5-.49-2.42v-5.46c0-.11.03-.19.09-.25.06-.06.14-.09.24-.09h1.86c.11,0,.19.03.25.09.06.06.09.14.09.25v5.49c0,.39.1.75.3,1.08.2.32.46.58.8.77s.7.28,1.1.28c.42,0,.8-.1,1.15-.3.35-.2.63-.47.84-.82.21-.35.31-.75.31-1.19v-5.32c0-.22.11-.34.32-.34h1.87c.22,0,.32.11.32.33Z"/>
      <path class="cls-1" d="m195.78,150.58c.06.06.09.14.09.25v16.28c0,.11-.03.19-.09.26-.06.06-.14.09-.25.09h-1.52c-.06,0-.12-.02-.17-.05-.05-.03-.08-.08-.1-.13l-.21-1.36c-.41.59-.92,1.04-1.54,1.36-.62.32-1.3.48-2.04.48-.91,0-1.74-.23-2.47-.7s-1.31-1.1-1.73-1.91c-.42-.81-.63-1.72-.63-2.73s.21-1.91.62-2.73c.41-.81.99-1.45,1.72-1.91s1.56-.69,2.48-.69c.7,0,1.35.14,1.93.42.58.28,1.08.68,1.49,1.2l-.03-7.9c0-.1.03-.18.09-.24s.14-.09.24-.09h1.87c.11,0,.19.03.25.09Zm-3.89,14.36c.44-.26.8-.61,1.06-1.06s.39-.93.39-1.47-.13-1.01-.39-1.44c-.26-.44-.61-.78-1.06-1.04s-.94-.38-1.47-.38-1,.13-1.43.38-.78.6-1.04,1.04-.38.92-.38,1.44.13,1.02.38,1.47.6.8,1.04,1.06.92.39,1.44.39,1.02-.13,1.47-.39Z"/>
      <path class="cls-1" d="m199.16,154.15c-.24-.14-.43-.33-.57-.56s-.21-.49-.21-.77.07-.54.21-.78c.14-.24.33-.43.57-.57s.5-.21.78-.21.54.07.78.21c.24.14.43.33.57.57.14.24.21.5.21.78s-.07.54-.21.77c-.14.24-.33.42-.57.56-.24.14-.5.21-.78.21s-.54-.07-.78-.21Zm1.94,3.33c.06.05.09.13.09.23v9.44c0,.1-.03.18-.09.23-.06.05-.14.08-.24.08h-1.88c-.21,0-.31-.1-.31-.31v-9.44c0-.21.1-.31.31-.31h1.88c.1,0,.18.03.24.08Z"/>
      <path class="cls-1" d="m203.93,159.76c.48-.82,1.14-1.46,1.97-1.94s1.74-.71,2.73-.71,1.89.24,2.71.71,1.48,1.12,1.96,1.94c.48.82.72,1.71.72,2.68s-.24,1.87-.72,2.68c-.48.81-1.14,1.46-1.96,1.93s-1.73.71-2.71.71-1.9-.24-2.73-.71c-.83-.47-1.48-1.12-1.97-1.93-.48-.82-.72-1.71-.72-2.68,0-.97.24-1.87.72-2.68Zm2.19,4.12c.26.44.6.79,1.04,1.05.44.26.92.39,1.45.39s1.01-.13,1.46-.39.79-.61,1.05-1.04c.26-.44.38-.92.38-1.44s-.13-1.01-.38-1.46c-.26-.44-.61-.8-1.05-1.06s-.93-.39-1.46-.39-1.01.13-1.45.39c-.44.26-.79.61-1.04,1.06s-.38.93-.38,1.46c0,.52.13,1,.38,1.44Z"/>
    </g>
    <g>
      <path class="cls-1" d="m6.95,158.36c.61.38,1.08.91,1.42,1.58.34.67.51,1.42.51,2.26s-.17,1.58-.52,2.25c-.35.67-.82,1.2-1.43,1.58-.61.38-1.29.58-2.05.58-.62,0-1.18-.13-1.69-.4-.51-.26-.93-.64-1.27-1.14l-.18,1.13s-.03.08-.07.11c-.04.03-.09.04-.14.04H.27c-.08,0-.15-.03-.2-.08s-.07-.12-.07-.21v-13.48c0-.08.02-.15.07-.2.05-.05.11-.08.2-.08h1.54c.08,0,.15.02.2.08.05.05.07.12.07.2l-.02,6.54c.34-.43.75-.76,1.23-.99.48-.23,1.01-.35,1.6-.35.76,0,1.45.19,2.05.57Zm-1.26,5.91c.36-.21.65-.5.86-.87s.32-.77.32-1.21-.11-.83-.32-1.19c-.21-.37-.5-.65-.85-.86s-.75-.32-1.18-.32-.85.11-1.22.32c-.37.21-.66.5-.88.86s-.32.76-.32,1.19.11.85.32,1.21.51.66.87.87c.37.22.77.32,1.21.32s.82-.11,1.19-.32Z"/>
      <path class="cls-1" d="m17.64,158.08s.07.09.07.15c0,.04,0,.08-.03.11l-3.31,7.77-.03.05-1.7,4.04c-.06.16-.17.24-.33.24h-1.43c-.22,0-.33-.08-.33-.23,0-.04.02-.11.05-.21l1.74-4.21-3.18-7.45s-.03-.08-.03-.11c0-.06.02-.12.07-.15s.1-.06.16-.06h1.67c.08,0,.16.02.22.07s.11.1.13.17l2.03,5.47,2.03-5.47c.03-.07.07-.13.13-.17.06-.04.14-.07.22-.07h1.67c.06,0,.12.02.16.06Z"/>
      <path class="cls-1" d="m19.64,166.44c-.2-.12-.37-.28-.48-.48-.12-.2-.18-.43-.18-.66s.06-.46.18-.66c.12-.21.28-.37.48-.48.21-.12.43-.18.67-.18s.46.06.66.18c.2.12.37.28.48.48.12.21.18.43.18.66s-.06.46-.18.66c-.12.21-.28.37-.48.48-.21.12-.43.18-.66.18s-.47-.06-.67-.18Z"/>
    </g>
    <path class="cls-1" d="m341.99,15.25v1.12h-2.24v5.59h-1.12v-5.59h-2.24v-1.12h5.59Zm1.12,0h1.4l1.68,2.91,1.68-2.91h1.4v6.71h-1.12v-4.96l-1.96,3.39-1.96-3.39v4.96h-1.12v-6.71Z"/>
  </g>
</svg>