<?xml version="1.0" encoding="UTF-8"?>
<svg id="Layer_2" data-name="Layer 2" xmlns="http://www.w3.org/2000/svg" viewBox="0 0 28.84 28.84">
  <defs>
    <style>
      .cls-1 {
        fill: none;
      }

      .cls-1, .cls-2, .cls-3 {
        stroke-width: 0px;
      }

      .cls-2, .cls-3 {
        fill: #fff;
      }

      .cls-3 {
        opacity: .1;
      }
    </style>
  </defs>
  <g id="Layer_1-2" data-name="Layer 1">
    <g>
      <path class="cls-1" d="m16.83,26.14c4.67-.96,8.35-4.64,9.31-9.31h-9.31v9.31Z"/>
      <path class="cls-1" d="m26.14,12.01c-.96-4.67-4.64-8.35-9.31-9.31v9.31s9.31,0,9.31,0Z"/>
      <path class="cls-1" d="m2.7,12.01h9.31s0-9.31,0-9.31C7.34,3.66,3.66,7.34,2.7,12.01Z"/>
      <path class="cls-1" d="m2.7,16.83c.96,4.67,4.64,8.35,9.31,9.31v-9.31H2.7Z"/>
      <path class="cls-2" d="m2.09,16.83H.78c-.49,0-.87.45-.76.92,1.27,5.48,5.59,9.8,11.07,11.07.48.11.92-.27.92-.76v-1.31c0-.36-.25-.66-.59-.74-4.19-1.09-7.49-4.39-8.58-8.58-.09-.35-.39-.59-.74-.59Z"/>
      <path class="cls-3" d="m12.01,2.09V.78c0-.51-.48-.87-.97-.75C5.59,1.31,1.31,5.59.03,11.04c-.12.49.24.97.75.97h1.31c.36,0,.66-.25.74-.59C3.93,7.23,7.23,3.92,11.42,2.84c.35-.09.59-.39.59-.74Z"/>
      <path class="cls-2" d="m26.75,12.01h1.31c.51,0,.87-.48.75-.97C27.53,5.58,23.22,1.28,17.75.02c-.48-.11-.92.27-.92.76v1.31c0,.36.25.66.59.74,4.19,1.09,7.49,4.39,8.58,8.58.09.35.39.59.74.59Z"/>
      <path class="cls-2" d="m16.83,26.75v1.31c0,.49.45.87.92.76,5.48-1.27,9.8-5.58,11.07-11.07.11-.48-.27-.92-.76-.92h-1.32c-.36,0-.66.25-.74.59-1.09,4.19-4.39,7.49-8.58,8.58-.35.09-.59.39-.59.74Z"/>
    </g>
    <path class="cls-2" d="m16.59,13.38c.45.15.79.4,1.01.75s.33,1.16.33,2.44c0,.95-.11,1.69-.32,2.21-.22.52-.59.92-1.12,1.2-.53.27-1.21.41-2.05.41-.95,0-1.69-.16-2.23-.48-.54-.32-.89-.71-1.06-1.17-.17-.46-.26-1.26-.26-2.4v-.95h2.98v1.94c0,.52.03.85.09.99.06.14.2.21.41.21.23,0,.38-.09.46-.27.07-.18.11-.64.11-1.39v-.83c0-.46-.05-.79-.16-1s-.26-.35-.46-.42c-.2-.07-.59-.1-1.17-.11v-1.74c.71,0,1.15-.03,1.31-.08.17-.05.29-.17.36-.35.07-.18.11-.47.11-.86v-.67c0-.42-.04-.69-.13-.83-.09-.13-.22-.2-.4-.2-.21,0-.35.07-.42.21-.08.14-.12.44-.12.9v.98h-2.98v-1.02c0-1.14.26-1.92.78-2.32s1.35-.6,2.49-.6c1.42,0,2.39.28,2.9.83.51.56.76,1.33.76,2.32,0,.67-.09,1.15-.27,1.45s-.5.57-.96.82Z"/>
  </g>
</svg>