<?xml version="1.0" encoding="UTF-8"?>
<svg id="Layer_2" data-name="Layer 2" xmlns="http://www.w3.org/2000/svg" viewBox="0 0 28.84 28.84">
  <defs>
    <style>
      .cls-1 {
        fill: none;
      }

      .cls-1, .cls-2, .cls-3 {
        stroke-width: 0px;
      }

      .cls-2, .cls-3 {
        fill: #fff;
      }

      .cls-3 {
        opacity: .25;
      }
    </style>
  </defs>
  <g id="Layer_1-2" data-name="Layer 1">
    <g>
      <path class="cls-1" d="m16.83,26.14c4.67-.96,8.35-4.64,9.31-9.31h-9.31v9.31Z"/>
      <path class="cls-1" d="m26.14,12.01c-.96-4.67-4.64-8.35-9.31-9.31v9.31s9.31,0,9.31,0Z"/>
      <path class="cls-1" d="m2.7,12.01h9.31s0-9.31,0-9.31C7.34,3.66,3.66,7.34,2.7,12.01Z"/>
      <path class="cls-1" d="m2.7,16.83c.96,4.67,4.64,8.35,9.31,9.31v-9.31H2.7Z"/>
      <path class="cls-2" d="m2.09,16.83H.78c-.49,0-.87.45-.76.92,1.27,5.48,5.59,9.8,11.07,11.07.48.11.92-.27.92-.76v-1.31c0-.36-.25-.66-.59-.74-4.19-1.09-7.49-4.39-8.58-8.58-.09-.35-.39-.59-.74-.59Z"/>
      <path class="cls-3" d="m12.01,2.09V.78c0-.51-.48-.87-.97-.75C5.59,1.31,1.31,5.59.03,11.04c-.12.49.24.97.75.97h1.31c.36,0,.66-.25.74-.59C3.93,7.23,7.23,3.92,11.42,2.84c.35-.09.59-.39.59-.74Z"/>
      <path class="cls-2" d="m26.75,12.01h1.31c.51,0,.87-.48.75-.97C27.53,5.58,23.22,1.28,17.75.02c-.48-.11-.92.27-.92.76v1.31c0,.36.25.66.59.74,4.19,1.09,7.49,4.39,8.58,8.58.09.35.39.59.74.59Z"/>
      <path class="cls-2" d="m16.83,26.75v1.31c0,.49.45.87.92.76,5.48-1.27,9.8-5.58,11.07-11.07.11-.48-.27-.92-.76-.92h-1.32c-.36,0-.66.25-.74.59-1.09,4.19-4.39,7.49-8.58,8.58-.35.09-.59.39-.59.74Z"/>
    </g>
    <path class="cls-2" d="m17.3,13.16c.58.2,1.01.52,1.3.96s.43,1.49.43,3.13c0,1.22-.14,2.17-.42,2.84-.28.67-.76,1.18-1.44,1.54-.68.35-1.56.53-2.62.53-1.21,0-2.17-.2-2.86-.61-.69-.41-1.15-.91-1.36-1.5-.22-.59-.33-1.62-.33-3.07v-1.21h3.83v2.49c0,.66.04,1.08.12,1.26.08.18.25.27.53.27.3,0,.49-.11.59-.34.09-.23.14-.82.14-1.78v-1.06c0-.59-.07-1.02-.2-1.29s-.33-.45-.59-.54c-.26-.08-.76-.13-1.51-.15v-2.23c.91,0,1.47-.03,1.69-.1.21-.07.37-.22.46-.45.09-.23.14-.6.14-1.1v-.85c0-.54-.06-.89-.17-1.06-.11-.17-.28-.26-.52-.26-.26,0-.45.09-.54.27-.1.18-.15.56-.15,1.15v1.26h-3.83v-1.31c0-1.46.33-2.46,1-2.97s1.73-.77,3.19-.77c1.82,0,3.06.36,3.71,1.07.65.71.98,1.7.98,2.97,0,.86-.12,1.48-.35,1.86s-.64.73-1.23,1.05Z"/>
  </g>
</svg>