<?xml version="1.0" encoding="UTF-8"?>
<svg id="Layer_2" data-name="Layer 2" xmlns="http://www.w3.org/2000/svg" viewBox="0 0 28.84 28.84">
  <defs>
    <style>
      .cls-1 {
        fill: none;
      }

      .cls-1, .cls-2, .cls-3 {
        stroke-width: 0px;
      }

      .cls-2, .cls-3 {
        fill: #fff;
      }

      .cls-3 {
        opacity: .25;
      }
    </style>
  </defs>
  <g id="Layer_1-2" data-name="Layer 1">
    <g>
      <path class="cls-1" d="m12.01,2.7C7.34,3.66,3.66,7.34,2.7,12.01h9.31V2.7Z"/>
      <path class="cls-1" d="m2.7,16.83c.96,4.67,4.64,8.35,9.31,9.31v-9.31H2.7Z"/>
      <path class="cls-1" d="m26.14,16.83h-9.31v9.31c4.67-.96,8.35-4.64,9.31-9.31Z"/>
      <path class="cls-1" d="m26.14,12.01c-.96-4.67-4.64-8.35-9.31-9.31v9.31h9.31Z"/>
      <path class="cls-2" d="m26.75,12.01h1.32c.49,0,.87-.45.76-.92C27.55,5.6,23.24,1.29,17.76.02c-.48-.11-.92.27-.92.76v1.31c0,.36.25.66.59.74,4.19,1.09,7.49,4.39,8.58,8.58.09.35.39.59.74.59Z"/>
      <path class="cls-3" d="m16.83,26.75v1.31c0,.51.48.87.97.75,5.44-1.28,9.73-5.56,11.01-11.01.12-.49-.24-.97-.75-.97h-1.31c-.36,0-.66.25-.74.59-1.09,4.19-4.39,7.49-8.58,8.58-.35.09-.59.39-.59.74Z"/>
      <path class="cls-3" d="m2.09,16.83H.78c-.51,0-.87.48-.75.97,1.28,5.46,5.59,9.75,11.06,11.02.48.11.92-.27.92-.76v-1.31c0-.36-.25-.66-.59-.74-4.19-1.09-7.49-4.39-8.58-8.58-.09-.35-.39-.59-.74-.59Z"/>
      <path class="cls-3" d="m12.01,2.09V.78c0-.49-.45-.87-.92-.76C5.6,1.29,1.29,5.6.02,11.09c-.11.48.27.92.76.92h1.32c.36,0,.66-.25.74-.59C3.93,7.23,7.23,3.92,11.42,2.84c.35-.09.59-.39.59-.74Z"/>
    </g>
    <path class="cls-2" d="m16.81,6.81v15.33h-3.83v-8.22c0-1.19-.03-1.9-.08-2.14-.06-.24-.21-.42-.47-.54s-.83-.19-1.71-.19h-.38v-1.79c1.85-.4,3.26-1.22,4.22-2.46h2.25Z"/>
  </g>
</svg>