<?xml version="1.0" encoding="UTF-8"?>
<svg id="Layer_2" data-name="Layer 2" xmlns="http://www.w3.org/2000/svg" viewBox="0 0 28.84 28.84">
  <defs>
    <style>
      .cls-1 {
        fill: none;
      }

      .cls-1, .cls-2 {
        stroke-width: 0px;
      }

      .cls-2 {
        fill: #fff;
      }
    </style>
  </defs>
  <g id="Layer_1-2" data-name="Layer 1">
    <g>
      <path class="cls-1" d="m2.7,16.83c.96,4.67,4.64,8.35,9.31,9.31v-9.31H2.7Z"/>
      <path class="cls-1" d="m16.83,26.14c4.67-.96,8.35-4.64,9.31-9.31h-9.31v9.31Z"/>
      <path class="cls-1" d="m16.83,2.7v9.31h9.31c-.96-4.67-4.64-8.35-9.31-9.31Z"/>
      <path class="cls-1" d="m12.01,2.7C7.34,3.66,3.66,7.34,2.7,12.01h9.31V2.7Z"/>
      <path class="cls-2" d="m12.01,2.09V.78c0-.49-.45-.87-.92-.76C5.6,1.29,1.29,5.6.02,11.09c-.11.48.27.92.76.92h1.31c.36,0,.66-.25.74-.59C3.92,7.23,7.23,3.93,11.42,2.84c.35-.09.59-.39.59-.74Z"/>
      <path class="cls-2" d="m26.75,12.01h1.31c.51,0,.87-.48.75-.97C27.53,5.59,23.25,1.31,17.8.03c-.49-.12-.97.24-.97.75v1.31c0,.36.25.66.59.74,4.19,1.09,7.49,4.39,8.58,8.58.09.35.39.59.74.59Z"/>
      <path class="cls-2" d="m16.83,26.75v1.31c0,.51.48.87.97.75,5.46-1.28,9.75-5.59,11.02-11.06.11-.48-.27-.92-.76-.92h-1.31c-.36,0-.66.25-.74.59-1.09,4.19-4.39,7.49-8.58,8.58-.35.09-.59.39-.59.74Z"/>
      <path class="cls-2" d="m2.09,16.83H.78c-.49,0-.87.45-.76.92,1.27,5.48,5.58,9.8,11.07,11.07.48.11.92-.27.92-.76v-1.32c0-.36-.25-.66-.59-.74-4.19-1.09-7.49-4.39-8.58-8.58-.09-.35-.39-.59-.74-.59Z"/>
    </g>
    <path class="cls-2" d="m17.71,6.81v10.02h1.09v2.61h-1.09v2.7h-3.83v-2.7h-4.55v-2.61l3.31-10.02h5.07Zm-3.83,10.02v-6.53l-1.69,6.53h1.69Z"/>
  </g>
</svg>