<?xml version="1.0" encoding="UTF-8"?>
<svg id="Layer_2" data-name="Layer 2" xmlns="http://www.w3.org/2000/svg" viewBox="0 0 28.84 28.84">
  <defs>
    <style>
      .cls-1 {
        fill: none;
      }

      .cls-1, .cls-2, .cls-3 {
        stroke-width: 0px;
      }

      .cls-2, .cls-3 {
        fill: #fff;
      }

      .cls-3 {
        opacity: .25;
      }
    </style>
  </defs>
  <g id="Layer_1-2" data-name="Layer 1">
    <g>
      <path class="cls-1" d="m26.14,12.01c-.96-4.67-4.64-8.35-9.31-9.31v9.31h9.31Z"/>
      <path class="cls-1" d="m12.01,2.7C7.34,3.66,3.66,7.34,2.7,12.01h9.31V2.7Z"/>
      <path class="cls-1" d="m12.01,26.14v-9.31H2.7c.96,4.67,4.64,8.35,9.31,9.31Z"/>
      <path class="cls-1" d="m16.83,26.14c4.67-.96,8.35-4.64,9.31-9.31h-9.31v9.31Z"/>
      <path class="cls-2" d="m16.83,26.75v1.32c0,.49.45.87.92.76,5.48-1.27,9.8-5.59,11.07-11.07.11-.48-.27-.92-.76-.92h-1.31c-.36,0-.66.25-.74.59-1.09,4.19-4.39,7.49-8.58,8.58-.35.09-.59.39-.59.74Z"/>
      <path class="cls-3" d="m2.09,16.83H.78c-.51,0-.87.48-.75.97,1.28,5.44,5.56,9.73,11.01,11.01.49.12.97-.24.97-.75v-1.31c0-.36-.25-.66-.59-.74-4.19-1.09-7.49-4.39-8.58-8.58-.09-.35-.39-.59-.74-.59Z"/>
      <path class="cls-3" d="m12.01,2.09V.78c0-.51-.48-.87-.97-.75C5.58,1.31,1.28,5.62.02,11.09c-.11.48.27.92.76.92h1.31c.36,0,.66-.25.74-.59C3.92,7.23,7.23,3.93,11.42,2.84c.35-.09.59-.39.59-.74Z"/>
      <path class="cls-2" d="m26.75,12.01h1.31c.49,0,.87-.45.76-.92C27.55,5.6,23.24,1.29,17.75.02c-.48-.11-.92.27-.92.76v1.32c0,.36.25.66.59.74,4.19,1.09,7.49,4.39,8.58,8.58.09.35.39.59.74.59Z"/>
    </g>
    <path class="cls-2" d="m18.66,18.87v2.61h-8.42v-2.19c2.5-4.08,3.98-6.6,4.45-7.57s.71-1.73.71-2.27c0-.42-.07-.73-.21-.93-.14-.21-.36-.31-.65-.31s-.51.11-.65.34c-.14.23-.21.68-.21,1.35v1.46h-3.43v-.56c0-.86.04-1.54.13-2.03.09-.5.31-.98.65-1.46.35-.48.8-.84,1.35-1.09.56-.25,1.22-.37,2-.37,1.52,0,2.67.38,3.45,1.13.78.75,1.17,1.71,1.17,2.87,0,.88-.22,1.81-.66,2.78-.44.98-1.73,3.06-3.88,6.23h4.2Z"/>
  </g>
</svg>