<?xml version="1.0" encoding="UTF-8"?>
<svg id="Layer_2" data-name="Layer 2" xmlns="http://www.w3.org/2000/svg" viewBox="0 0 866.13 528.85">
  <defs>
    <style>
      .cls-1 {
        opacity: 0;
      }

      .cls-1, .cls-2 {
        fill: #222523;
        stroke-width: 0px;
      }
    </style>
  </defs>
  <g id="Layer_1-2" data-name="Layer 1">
    <circle class="cls-1" cx="137.91" cy="390.94" r="137.91"/>
    <polygon class="cls-2" points="776.66 406.24 748.29 433.1 764.79 449.28 779.93 448.1 803.9 433.68 817.71 438.42 847.14 436.57 864.25 420.44 866.13 392.96 855.17 367.38 832.95 358.37 809.82 354.8 792.1 323.03 745.56 157.75 714.81 114.01 671.46 86.93 671.01 81.14 660.21 74.81 645.78 67.88 647.96 61.43 605.79 37.85 625.68 0 618.55 .56 598.69 33.03 592.62 29.92 597.14 24.64 560.66 5.09 553.82 15.03 544.67 12.61 534.96 25.92 543.02 31.56 536.25 42.4 572.11 59.75 579.84 55.56 628.88 86.68 653.33 101.34 660.52 101.67 711.21 142.51 730.55 177.74 773.43 324.94 790.4 358.56 777.44 376.16 775.79 395.1 776.66 406.24"/>
  </g>
</svg>