<?xml version="1.0" encoding="UTF-8"?>
<svg id="Layer_2" data-name="Layer 2" xmlns="http://www.w3.org/2000/svg" viewBox="0 0 526.95 525.75">
  <defs>
    <style>
      .cls-1 {
        opacity: 0;
      }

      .cls-2 {
        fill: #222523;
        stroke-width: 0px;
      }
    </style>
  </defs>
  <g id="Layer_1-2" data-name="Layer 1">
    <g class="cls-1">
      <path class="cls-2" d="m34.16,242.53l1.17,26.49-8.13.36c-3.79.17-6.2.61-7.21,1.34-1.01.72-1.48,1.88-1.41,3.46.08,1.72.83,2.98,2.27,3.8s3.58,1.17,6.43,1.04c3.66-.16,6.4-.78,8.21-1.85,1.81-1.03,3.93-3.81,6.35-8.36,6.97-13.03,12.81-21.3,17.49-24.81,4.69-3.51,12.41-5.5,23.16-5.98,7.81-.35,13.61.31,17.4,1.98,3.79,1.67,7.05,5.06,9.79,10.19s4.26,11.17,4.57,18.13c.34,7.63-.82,14.21-3.47,19.74-2.65,5.53-6.18,9.22-10.58,11.09-4.4,1.87-10.71,2.99-18.93,3.35l-7.18.32-1.17-26.49,13.35-.59c4.11-.18,6.74-.67,7.88-1.47s1.67-2.14,1.59-4.04-.89-3.28-2.42-4.14c-1.53-.86-3.76-1.23-6.7-1.1-6.46.29-10.64,1.35-12.55,3.2-1.91,1.9-5.03,6.49-9.37,13.79-4.38,7.3-7.59,12.15-9.61,14.55-2.02,2.4-4.87,4.44-8.56,6.11-3.68,1.68-8.44,2.65-14.26,2.9-8.4.37-14.59-.43-18.57-2.4-3.98-1.97-7.17-5.31-9.57-10-2.4-4.69-3.75-10.42-4.05-17.2-.33-7.41.59-13.77,2.75-19.1,2.16-5.32,5.03-8.91,8.59-10.77,3.56-1.86,9.7-2.97,18.42-3.36l4.34-.19Z"/>
      <path class="cls-2" d="m25.54,152.36l108.56,23.19-10.23,27.33-19.02-5.48-3.58,9.57,17.88,8.53-10.35,27.65L11.08,191.01l14.47-38.65Zm60.82,38.92c-12.15-3-27.06-7.04-44.72-12.09,18.67,10.09,32.43,17.19,41.27,21.3l3.45-9.21Z"/>
      <path class="cls-2" d="m121.62,38.47l73.4,81.67-18.56,16.68-49.58-55.11,42.16,61.78-13.17,11.83-56.21-46.87,48.39,53.9-18.56,16.68L56.09,97.36l27.48-24.7c5.23,4.18,11.27,9.21,18.12,15.1l21.69,18.06-29.39-42.52,27.63-24.83Z"/>
      <path class="cls-2" d="m170.09,16.42l27.84-7.19c7.53-1.94,13.47-2.85,17.83-2.71,4.35.14,7.84,1.06,10.45,2.77,2.61,1.71,4.69,4.06,6.23,7.04,1.54,2.99,3.17,7.81,4.89,14.46l2.39,9.26c1.75,6.79,2.33,11.92,1.73,15.38-.6,3.47-2.55,6.52-5.87,9.15-3.31,2.63-7.99,4.72-14.03,6.28l-7.42,1.92,11.05,42.82-27.65,7.13-27.44-106.32Zm32.34,11.05l6.98,27.06c.8-.16,1.48-.31,2.05-.46,2.54-.66,4.14-1.73,4.8-3.24s.49-4.22-.53-8.16l-2.25-8.73c-.94-3.63-2.12-5.85-3.54-6.65-1.42-.8-3.93-.74-7.52.19Z"/>
      <path class="cls-2" d="m296.35,2.76l-8.49,87.42,17.28,1.68-2.12,21.87-45.7-4.44L267.93,0l28.42,2.76Z"/>
      <path class="cls-2" d="m346.02,12.95l43.73,18.82-8.69,20.18-17.51-7.53-8.23,19.12,16.38,7.05-8.26,19.19-16.38-7.05-9.54,22.18,19.25,8.28-8.69,20.18-45.48-19.57,43.41-100.86Z"/>
      <path class="cls-2" d="m462.98,146.39l-16.27-20.94,6.43-4.99c3-2.33,4.7-4.08,5.11-5.26.4-1.17.12-2.38-.85-3.63-1.05-1.36-2.41-1.95-4.05-1.79-1.65.17-3.6,1.12-5.85,2.87-2.89,2.25-4.77,4.33-5.62,6.25-.88,1.89-1,5.38-.35,10.49,1.84,14.67,1.86,24.79.07,30.36-1.8,5.57-6.94,11.66-15.44,18.27-6.18,4.8-11.29,7.61-15.34,8.44-4.05.83-8.68-.06-13.88-2.66-5.2-2.6-9.94-6.65-14.21-12.15-4.69-6.03-7.55-12.07-8.58-18.11s-.29-11.1,2.22-15.16c2.51-4.07,7.01-8.62,13.51-13.67l5.68-4.41,16.27,20.94-10.55,8.2c-3.25,2.52-5.11,4.44-5.58,5.75-.47,1.31-.12,2.72,1.04,4.21,1.17,1.5,2.62,2.16,4.37,1.97,1.75-.18,3.78-1.18,6.1-2.98,5.11-3.97,7.9-7.26,8.39-9.87.46-2.65.35-8.21-.32-16.67-.64-8.49-.83-14.3-.57-17.42s1.41-6.44,3.45-9.94c2.03-3.5,5.35-7.04,9.96-10.62,6.64-5.16,12.15-8.08,16.54-8.77,4.39-.69,8.92.18,13.59,2.62,4.67,2.44,9.09,6.34,13.25,11.69,4.55,5.86,7.48,11.58,8.79,17.17,1.31,5.59,1.05,10.18-.78,13.75-1.83,3.57-6.2,8.04-13.09,13.39l-3.43,2.66Z"/>
      <path class="cls-2" d="m479.79,244.85l-6.75-27.74,18.54-4.51c5.39-1.31,8.68-2.43,9.88-3.35,1.19-.92,1.54-2.39,1.05-4.41-.56-2.29-1.72-3.54-3.5-3.76-1.78-.22-5.36.33-10.77,1.64l-49.55,12.07c-5.18,1.26-8.49,2.39-9.92,3.39-1.43,1-1.89,2.58-1.36,4.73.5,2.06,1.62,3.22,3.36,3.47,1.74.25,5.54-.34,11.4-1.76l13.41-3.26,6.75,27.74-4.16,1.01c-11.04,2.69-19.06,3.81-24.06,3.38s-9.89-2.9-14.66-7.39c-4.77-4.49-8.11-10.65-10.02-18.47-1.98-8.13-2.14-15.18-.48-21.17s4.88-10.47,9.67-13.45c4.79-2.98,12.41-5.74,22.87-8.29l31.17-7.59c7.69-1.87,13.52-3.01,17.49-3.42s8.06.26,12.25,2.01c4.19,1.75,7.88,4.69,11.05,8.83s5.49,9.21,6.96,15.23c1.99,8.17,2.05,15.3.19,21.38-1.87,6.08-4.95,10.54-9.26,13.35-4.31,2.82-11.44,5.44-21.4,7.86l-10.13,2.47Z"/>
      <path class="cls-2" d="m526.95,280.77l-3.79,19.85c-2.53,13.23-4.75,22.1-6.67,26.59-1.92,4.49-5.26,7.81-10.02,9.96-4.76,2.15-11.74,2.35-20.93.59-8.39-1.6-13.83-3.73-16.32-6.36-2.49-2.64-3.44-7.08-2.84-13.32-2.44,5.29-4.99,8.67-7.67,10.13-2.67,1.47-5.02,2.25-7.04,2.35-2.02.1-7.38-.69-16.09-2.35l-28.45-5.44,4.98-26.05,35.84,6.85c5.77,1.1,9.44,1.33,10.99.68,1.55-.65,2.7-2.9,3.43-6.77l-48.63-9.29,5.36-28.05,107.85,20.61Zm-23.81,24.52l-23.98-4.58c-.6,3.15-.59,5.45.03,6.88.62,1.43,3.31,2.6,8.06,3.51l5.93,1.13c3.42.65,5.78.47,7.08-.55,1.3-1.02,2.26-3.15,2.88-6.39Z"/>
      <path class="cls-2" d="m468.63,426.96l-99.78-48.65,16.51-24.06,17.14,9.9,5.78-8.42-15.3-12.58,16.7-24.34,82.3,74.12-23.35,34.03Zm-49.66-52.42c11.07,5.84,24.57,13.34,40.49,22.5-15.69-14.29-27.34-24.5-34.93-30.61l-5.56,8.1Z"/>
      <path class="cls-2" d="m393.63,492.17l-13.01-17.71,13.66-10.04-52-70.78,23.01-16.91,52,70.78,13.61-10,13.01,17.71-50.28,36.94Z"/>
      <path class="cls-2" d="m280.59,478.67l27.77-6.62,4.42,18.56c1.29,5.4,2.39,8.7,3.3,9.89.91,1.2,2.38,1.55,4.4,1.07,2.29-.54,3.54-1.71,3.77-3.48.23-1.77-.3-5.37-1.59-10.78l-11.82-49.61c-1.24-5.19-2.35-8.5-3.34-9.94s-2.57-1.9-4.72-1.38c-2.07.49-3.23,1.61-3.49,3.35-.26,1.74.31,5.54,1.71,11.41l3.2,13.43-27.77,6.62-.99-4.16c-2.63-11.06-3.72-19.08-3.26-24.08.46-5,2.95-9.87,7.46-14.63,4.51-4.75,10.69-8.06,18.52-9.93,8.14-1.94,15.2-2.06,21.17-.38,5.98,1.69,10.45,4.94,13.41,9.74,2.96,4.8,5.68,12.44,8.18,22.91l7.44,31.21c1.83,7.7,2.95,13.53,3.34,17.51.39,3.97-.3,8.05-2.07,12.24-1.77,4.19-4.73,7.85-8.88,11.01-4.15,3.15-9.24,5.44-15.27,6.88-8.18,1.95-15.31,1.98-21.38.08-6.07-1.89-10.51-5-13.31-9.33-2.8-4.32-5.38-11.47-7.76-21.44l-2.42-10.15Z"/>
      <path class="cls-2" d="m179.5,512.7l21.84-107.61,27.98,5.68-9.17,45.2,8.38,1.7,9.17-45.2,27.98,5.68-21.84,107.61-27.98-5.68,7.81-38.48-8.38-1.7-7.81,38.48-27.98-5.68Z"/>
      <path class="cls-2" d="m139.16,494.04l-39.75-26.21,12.1-18.35,15.91,10.49,11.46-17.38-14.89-9.82,11.5-17.44,14.89,9.82,13.29-20.16-17.5-11.54,12.09-18.35,41.33,27.25-60.44,91.67Z"/>
      <path class="cls-2" d="m68.15,439.41l-11.65-16.51c-7.77-11.01-12.6-18.76-14.5-23.26-1.9-4.5-1.97-9.2-.22-14.13,1.76-4.92,6.46-10.08,14.11-15.48,6.98-4.93,12.29-7.37,15.91-7.33,3.63.04,7.48,2.44,11.56,7.2-2.11-5.43-2.77-9.61-1.97-12.55.8-2.94,1.87-5.18,3.2-6.7s5.62-4.84,12.86-9.95l23.66-16.7,15.29,21.67-29.81,21.04c-4.8,3.39-7.51,5.87-8.12,7.43-.61,1.57.22,3.96,2.49,7.17l40.45-28.55,16.46,23.33-89.71,63.31Zm-1.12-34.16l19.95-14.08c-1.85-2.62-3.51-4.21-4.97-4.75-1.46-.54-4.17.58-8.12,3.37l-4.93,3.48c-2.84,2.01-4.35,3.83-4.52,5.47-.17,1.64.7,3.81,2.6,6.51Z"/>
    </g>
    <circle class="cls-2" cx="263.47" cy="262.88" r="137.91"/>
  </g>
</svg>