<?xml version="1.0" encoding="UTF-8"?>
<svg id="Layer_2" data-name="Layer 2" xmlns="http://www.w3.org/2000/svg" viewBox="0 0 349.26 161.6">
  <defs>
    <style>
      .cls-1 {
        fill: #fff;
        stroke-width: 0px;
      }
    </style>
  </defs>
  <g id="Layer_1-2" data-name="Layer 1">
    <g>
      <path class="cls-1" d="m32.08,34.82h-13.53v-4.15c0-1.94-.17-3.17-.52-3.7-.35-.53-.92-.8-1.73-.8-.88,0-1.54.36-1.99,1.07-.45.72-.67,1.8-.67,3.25,0,1.87.25,3.28.76,4.22.48.95,1.85,2.09,4.12,3.42,6.48,3.85,10.57,7.01,12.25,9.48,1.68,2.47,2.53,6.45,2.53,11.94,0,3.99-.47,6.93-1.4,8.82-.93,1.89-2.74,3.48-5.42,4.76-2.68,1.28-5.79,1.92-9.34,1.92-3.9,0-7.23-.74-9.98-2.21-2.76-1.48-4.56-3.36-5.42-5.64-.85-2.28-1.28-5.52-1.28-9.72v-3.67h13.53v6.82c0,2.1.19,3.45.57,4.05.38.6,1.06.9,2.02.9s1.69-.38,2.16-1.14.71-1.89.71-3.39c0-3.3-.45-5.46-1.35-6.47-.92-1.02-3.2-2.71-6.82-5.09-3.62-2.4-6.02-4.14-7.2-5.22-1.18-1.08-2.15-2.58-2.92-4.5-.77-1.91-1.16-4.36-1.16-7.34,0-4.29.55-7.43,1.64-9.41,1.1-1.98,2.87-3.54,5.31-4.65,2.44-1.12,5.4-1.68,8.86-1.68,3.78,0,7.01.61,9.67,1.83,2.66,1.22,4.43,2.76,5.29,4.62s1.3,5.01,1.3,9.46v2.21Z"/>
      <path class="cls-1" d="m63.04,17.87l8.33,56.02h-14.89l-.78-10.07h-5.21l-.88,10.07h-15.06l7.43-56.02h21.06Zm-7.72,36.02c-.74-6.35-1.48-14.19-2.22-23.53-1.48,10.73-2.42,18.57-2.8,23.53h5.01Z"/>
      <path class="cls-1" d="m118.79,17.87v56.02h-12.73l-.02-37.82-5.07,37.82h-9.03l-5.35-36.96-.02,36.96h-12.73V17.87h18.85c.56,3.37,1.14,7.34,1.73,11.91l2.07,14.25,3.35-26.16h18.95Z"/>
      <path class="cls-1" d="m124.64,17.87h14.67c3.97,0,7.02.31,9.15.93,2.13.62,3.74,1.52,4.81,2.7,1.07,1.18,1.8,2.6,2.18,4.27.38,1.67.57,4.26.57,7.77v4.88c0,3.58-.37,6.18-1.11,7.82-.74,1.64-2.09,2.9-4.07,3.77-1.97.88-4.55,1.32-7.73,1.32h-3.91v22.56h-14.57V17.87Zm14.57,9.58v14.26c.42.02.77.03,1.07.03,1.34,0,2.27-.33,2.79-.99.52-.66.78-2.02.78-4.1v-4.6c0-1.91-.3-3.16-.9-3.74-.6-.58-1.85-.86-3.74-.86Z"/>
      <path class="cls-1" d="m174.78,17.87v44.81h8.86v11.21h-23.43V17.87h14.57Z"/>
      <path class="cls-1" d="m187.17,17.87h24.29v11.21h-9.72v10.62h9.1v10.66h-9.1v12.32h10.69v11.21h-25.26V17.87Z"/>
      <path class="cls-1" d="m32.08,97.19h-13.53v-4.15c0-1.94-.17-3.17-.52-3.7-.35-.53-.92-.8-1.73-.8-.88,0-1.54.36-1.99,1.07-.45.72-.67,1.8-.67,3.25,0,1.87.25,3.28.76,4.22.48.95,1.85,2.09,4.12,3.42,6.48,3.85,10.57,7.01,12.25,9.48,1.68,2.47,2.53,6.45,2.53,11.94,0,3.99-.47,6.93-1.4,8.82-.93,1.89-2.74,3.48-5.42,4.76-2.68,1.28-5.79,1.92-9.34,1.92-3.9,0-7.23-.74-9.98-2.21-2.76-1.48-4.56-3.36-5.42-5.64-.85-2.28-1.28-5.52-1.28-9.72v-3.67h13.53v6.82c0,2.1.19,3.45.57,4.05.38.6,1.06.9,2.02.9s1.69-.38,2.16-1.14c.47-.76.71-1.89.71-3.39,0-3.3-.45-5.46-1.35-6.47-.92-1.01-3.2-2.71-6.82-5.09-3.62-2.4-6.02-4.14-7.2-5.23-1.18-1.08-2.15-2.58-2.92-4.5-.77-1.91-1.16-4.36-1.16-7.34,0-4.29.55-7.43,1.64-9.41,1.1-1.98,2.87-3.53,5.31-4.65,2.44-1.12,5.4-1.68,8.86-1.68,3.78,0,7.01.61,9.67,1.83,2.66,1.22,4.43,2.76,5.29,4.62.87,1.86,1.3,5.01,1.3,9.46v2.21Z"/>
      <path class="cls-1" d="m71.87,104.63h-14.57v-9.74c0-2.83-.16-4.6-.47-5.3-.31-.7-1-1.05-2.06-1.05-1.2,0-1.96.43-2.28,1.28-.32.85-.48,2.7-.48,5.54v26.02c0,2.72.16,4.5.48,5.33.32.83,1.05,1.25,2.18,1.25s1.79-.42,2.13-1.25c.33-.83.5-2.79.5-5.86v-7.04h14.57v2.18c0,5.8-.41,9.91-1.23,12.34s-2.63,4.55-5.43,6.38c-2.8,1.82-6.26,2.74-10.36,2.74s-7.79-.77-10.55-2.32c-2.77-1.55-4.6-3.69-5.5-6.42-.9-2.73-1.35-6.85-1.35-12.34v-16.37c0-4.04.14-7.06.42-9.08s1.1-3.96,2.47-5.83c1.37-1.87,3.28-3.34,5.71-4.41,2.43-1.07,5.23-1.61,8.39-1.61,4.29,0,7.83.83,10.62,2.49,2.79,1.66,4.62,3.73,5.5,6.2.88,2.48,1.31,6.33,1.31,11.56v5.32Z"/>
      <path class="cls-1" d="m77.09,80.23h10.31c6.87,0,11.53.27,13.96.8,2.43.53,4.42,1.89,5.95,4.07s2.3,5.66,2.3,10.43c0,4.36-.54,7.29-1.63,8.79-1.08,1.5-3.22,2.4-6.4,2.7,2.88.72,4.82,1.67,5.81,2.87.99,1.2,1.61,2.3,1.85,3.3.24,1,.36,3.77.36,8.29v14.78h-13.53v-18.62c0-3-.24-4.86-.71-5.57-.47-.71-1.71-1.07-3.72-1.07v25.26h-14.57v-56.02Zm14.57,9.58v12.46c1.64,0,2.79-.23,3.44-.67.66-.45.99-1.91.99-4.38v-3.08c0-1.78-.32-2.94-.95-3.5s-1.79-.83-3.48-.83Z"/>
      <path class="cls-1" d="m140.44,80.23l8.33,56.02h-14.89l-.78-10.07h-5.21l-.88,10.07h-15.06l7.43-56.02h21.06Zm-7.72,36.02c-.74-6.35-1.48-14.19-2.22-23.53-1.48,10.73-2.42,18.57-2.8,23.53h5.01Z"/>
      <path class="cls-1" d="m176.68,80.23v11.21h-8.65v44.81h-14.57v-44.81h-8.62v-11.21h31.83Z"/>
      <path class="cls-1" d="m214.02,104.63h-14.57v-9.74c0-2.83-.16-4.6-.47-5.3-.31-.7-1-1.05-2.06-1.05-1.2,0-1.96.43-2.28,1.28-.32.85-.48,2.7-.48,5.54v26.02c0,2.72.16,4.5.48,5.33.32.83,1.05,1.25,2.18,1.25s1.79-.42,2.13-1.25c.33-.83.5-2.79.5-5.86v-7.04h14.57v2.18c0,5.8-.41,9.91-1.23,12.34-.82,2.43-2.63,4.55-5.43,6.38-2.8,1.82-6.26,2.74-10.36,2.74s-7.79-.77-10.55-2.32c-2.77-1.55-4.6-3.69-5.5-6.42-.9-2.73-1.35-6.85-1.35-12.34v-16.37c0-4.04.14-7.06.42-9.08s1.1-3.96,2.47-5.83c1.37-1.87,3.28-3.34,5.71-4.41,2.43-1.07,5.23-1.61,8.39-1.61,4.29,0,7.83.83,10.62,2.49,2.79,1.66,4.62,3.73,5.5,6.2.88,2.48,1.31,6.33,1.31,11.56v5.32Z"/>
      <path class="cls-1" d="m252.74,80.23v56.02h-14.57v-23.53h-4.36v23.53h-14.57v-56.02h14.57v20.04h4.36v-20.04h14.57Z"/>
      <path class="cls-1" d="m258.59,80.23h24.29v11.21h-9.72v10.62h9.1v10.66h-9.1v12.32h10.69v11.21h-25.26v-56.02Z"/>
      <path class="cls-1" d="m288.03,80.23h10.31c6.87,0,11.53.27,13.96.8,2.43.53,4.42,1.89,5.95,4.07s2.3,5.66,2.3,10.43c0,4.36-.54,7.29-1.63,8.79-1.08,1.5-3.22,2.4-6.4,2.7,2.88.72,4.82,1.67,5.81,2.87.99,1.2,1.61,2.3,1.85,3.3.24,1,.36,3.77.36,8.29v14.78h-13.53v-18.62c0-3-.24-4.86-.71-5.57-.47-.71-1.71-1.07-3.72-1.07v25.26h-14.57v-56.02Zm14.57,9.58v12.46c1.64,0,2.79-.23,3.44-.67.66-.45.99-1.91.99-4.38v-3.08c0-1.78-.32-2.94-.95-3.5-.63-.55-1.79-.83-3.48-.83Z"/>
    </g>
    <g>
      <path class="cls-1" d="m280.09,0c-34.65,0-62.73,28.09-62.73,62.73,0,3.38.28,6.69.79,9.93h29.97c-3.1-3.79-4.96-8.62-4.96-13.9,0-12.13,9.84-21.97,21.97-21.97s21.97,9.84,21.97,21.97c0,5.27-1.86,10.11-4.96,13.9h15.79c1.88-4.25,2.93-8.95,2.93-13.9,0-19-15.41-34.41-34.41-34.41-10.54,0-19.97,4.74-26.28,12.21,6.6-9.47,17.57-15.68,29.99-15.68,20.17,0,36.53,16.35,36.53,36.53,0,5.45-1.2,10.62-3.35,15.27,3.94.14,8.16.96,12.05,2.63,1.98-5.14,3.08-10.72,3.08-16.55,0-25.44-20.62-46.06-46.06-46.06-11.73,0-22.43,4.39-30.56,11.61,9.05-9.42,21.76-15.29,35.86-15.29,27.47,0,49.73,22.27,49.73,49.73,0,7.61-1.71,14.81-4.77,21.26,1.93,1.83,3.58,4.05,4.78,6.71.65,1.45,2.02,4.49,2.77,13.71,7.91-10.5,12.6-23.55,12.6-37.71,0-34.65-28.09-62.73-62.73-62.73Z"/>
      <path class="cls-1" d="m265.14,54.79c-2.19,0-3.97,1.78-3.97,3.97s1.78,3.97,3.97,3.97,3.97-1.78,3.97-3.97-1.78-3.97-3.97-3.97Z"/>
    </g>
    <path class="cls-1" d="m61.21,151.74c1.36.19,2.46.4,3.15.54-.89.69-1.78,1.27-2.66,1.75-9.42,5.17-20.51,1.33-24.73-.4-.24.09-.61.23-1.06.4-2.82,1.08-4.58,1.86-5.62,2.3-3.05,1.27-7.18,3-7.92,2.01-.18-.25-.21-.73.38-1.77.52-.93,1.22-1.74,2.05-2.41,1.65-1.33,3.11-1.83,4.21-2.02,1.55-.27,1.79.16,6.89.26,1.58.03,2.67,0,3.9-.11,1.77-.16,3.05-.44,3.52-.54-.47-.1-1.75-.38-3.52-.54-1.24-.12-2.32-.14-3.9-.11-5.1.09-5.34.53-6.89.26-1.1-.19-2.57-.69-4.21-2.02-.83-.67-1.53-1.48-2.05-2.41-.59-1.04-.56-1.53-.38-1.77.74-.99,4.86.73,7.92,2.01,1.04.43,2.8,1.21,5.62,2.3.44.17.81.31,1.06.4,4.22-1.73,15.31-5.57,24.73-.4.88.48,1.77,1.06,2.66,1.75-.69.14-1.79.35-3.15.54Z"/>
    <g>
      <path class="cls-1" d="m79.7,155.63c.1,0,.18.04.24.11l.81,1.18s.04.07.04.12c0,.06-.02.12-.05.18-.03.06-.08.11-.14.15-.53.44-1.16.79-1.91,1.05s-1.48.39-2.18.39c-1.28,0-2.46-.31-3.53-.93-1.07-.62-1.92-1.46-2.55-2.52-.62-1.06-.94-2.22-.94-3.49s.31-2.44.94-3.5c.62-1.06,1.47-1.9,2.55-2.52s2.25-.93,3.53-.93c.68,0,1.39.13,2.14.39.75.26,1.41.61,1.99,1.05.12.1.18.2.18.31,0,.05-.02.1-.05.15l-.83,1.17c-.05.08-.13.12-.23.12-.09,0-.18-.04-.28-.11-.45-.33-.93-.59-1.45-.79-.52-.19-1.01-.29-1.49-.29-.91,0-1.74.22-2.49.66-.75.44-1.35,1.04-1.79,1.8-.44.76-.66,1.59-.66,2.49s.22,1.73.66,2.48c.44.75,1.04,1.35,1.8,1.79.76.44,1.58.66,2.48.66.48,0,.97-.09,1.49-.28.52-.19.99-.45,1.42-.78.1-.07.19-.1.29-.1Z"/>
      <path class="cls-1" d="m94.41,158.33c0,.08-.03.14-.08.18-.05.04-.13.06-.22.06h-1.54c-.09,0-.16-.03-.23-.08-.07-.05-.12-.13-.15-.22l-1-2.63h-5.91l-.99,2.62c-.03.09-.08.17-.16.22-.08.05-.16.08-.24.08h-1.53c-.2,0-.29-.08-.29-.23,0-.05.01-.11.04-.17l5.16-12.72c.04-.1.09-.17.17-.23.08-.05.16-.08.25-.08h1.14c.09,0,.18.03.25.09s.13.13.16.22l5.16,12.72c.02.07.04.12.04.16Zm-3.9-4.45l-2.29-6.01-2.29,6.01h4.57Z"/>
      <path class="cls-1" d="m105.65,158.31c0,.07-.02.13-.07.18-.05.05-.11.07-.19.07h-1.68c-.09,0-.16-.02-.22-.06-.06-.04-.12-.12-.18-.22l-2.23-4.23h-2.73v4.17c0,.11-.03.2-.09.26-.06.06-.14.09-.25.09h-1.39c-.22,0-.33-.12-.33-.35v-12.72c0-.1.03-.19.09-.25.06-.06.14-.1.24-.1h4.3c.89,0,1.69.19,2.4.56.7.37,1.25.9,1.64,1.58.39.68.59,1.46.59,2.33s-.21,1.7-.64,2.39-1.01,1.21-1.76,1.57l2.46,4.6s.04.09.04.14Zm-7.3-6.22h2.57c.49,0,.93-.11,1.32-.32.39-.21.69-.51.91-.88.22-.37.33-.8.33-1.27s-.11-.91-.33-1.29c-.22-.38-.52-.68-.91-.89-.39-.21-.83-.32-1.32-.32h-2.57v4.98Z"/>
      <path class="cls-1" d="m114.86,145.7c.7.37,1.25.9,1.64,1.58.39.68.59,1.46.59,2.34s-.2,1.64-.59,2.31c-.39.67-.94,1.2-1.64,1.57-.7.37-1.5.56-2.4.56h-2.42v4.16c0,.11-.03.2-.09.26-.06.06-.14.09-.25.09h-1.39c-.22,0-.33-.12-.33-.35v-12.72c0-.1.03-.19.09-.25.06-.06.14-.1.24-.1h4.15c.9,0,1.7.19,2.4.56Zm-1.08,6.06c.39-.21.69-.51.91-.88.22-.37.33-.8.33-1.27s-.11-.91-.33-1.29c-.22-.38-.52-.68-.91-.89s-.83-.32-1.32-.32h-2.42v4.97h2.42c.49,0,.93-.11,1.32-.32Z"/>
      <path class="cls-1" d="m134.4,158.33c0,.08-.03.14-.08.18-.05.04-.13.06-.22.06h-1.54c-.09,0-.16-.03-.23-.08-.07-.05-.12-.13-.15-.22l-1-2.63h-5.91l-.99,2.62c-.03.09-.08.17-.16.22-.08.05-.16.08-.24.08h-1.53c-.2,0-.29-.08-.29-.23,0-.05.01-.11.04-.17l5.16-12.72c.04-.1.09-.17.17-.23.08-.05.16-.08.25-.08h1.14c.09,0,.18.03.25.09s.13.13.16.22l5.16,12.72c.02.07.04.12.04.16Zm-3.9-4.45l-2.29-6.01-2.29,6.01h4.57Z"/>
      <path class="cls-1" d="m143.32,150.87v7.45c0,.08-.02.14-.07.19-.05.05-.11.07-.2.07h-1.18c-.14,0-.22-.06-.25-.17l-.16-.82c-.29.39-.66.69-1.1.91-.44.22-.91.33-1.41.33-.65,0-1.22-.15-1.71-.44-.48-.29-.85-.71-1.11-1.26s-.39-1.18-.39-1.92v-4.32c0-.09.02-.15.07-.2.05-.05.11-.07.19-.07h1.47c.09,0,.15.02.2.07.05.05.07.11.07.2v4.34c0,.31.08.6.23.85.16.26.37.46.63.61s.56.22.87.22c.33,0,.63-.08.91-.23.28-.16.5-.37.67-.65.17-.28.25-.59.25-.94v-4.21c0-.18.09-.27.26-.27h1.48c.17,0,.26.09.26.27Z"/>
      <path class="cls-1" d="m153.36,145.2s.07.11.07.2v12.89c0,.09-.02.15-.07.2-.05.05-.11.07-.2.07h-1.2s-.09-.01-.13-.04c-.04-.03-.07-.06-.08-.11l-.17-1.07c-.32.47-.73.82-1.22,1.08-.49.25-1.03.38-1.62.38-.72,0-1.37-.18-1.96-.55s-1.04-.87-1.37-1.51-.5-1.36-.5-2.16.16-1.51.49-2.16c.33-.64.78-1.15,1.36-1.51s1.24-.55,1.96-.55c.56,0,1.07.11,1.53.34.46.22.86.54,1.18.95l-.03-6.25c0-.08.02-.14.07-.19s.11-.07.19-.07h1.48c.08,0,.15.02.2.07Zm-3.08,11.37c.35-.21.63-.48.84-.84s.31-.74.31-1.16-.1-.8-.31-1.14c-.21-.35-.48-.62-.84-.82s-.74-.3-1.17-.3-.79.1-1.13.3-.62.48-.82.83-.3.73-.3,1.14.1.81.3,1.16.48.63.82.84.73.31,1.14.31.81-.1,1.16-.31Z"/>
      <path class="cls-1" d="m156.03,148.03c-.19-.11-.34-.26-.45-.45s-.17-.39-.17-.61.06-.43.17-.62c.11-.19.26-.34.45-.45s.39-.17.62-.17.43.05.62.17c.19.11.34.26.45.45.11.19.17.39.17.62s-.05.42-.17.61c-.11.19-.26.34-.45.45-.19.11-.39.17-.62.17s-.43-.05-.62-.17Zm1.54,2.64s.07.1.07.18v7.47c0,.08-.02.14-.07.18-.05.04-.11.06-.19.06h-1.49c-.17,0-.25-.08-.25-.25v-7.47c0-.17.08-.25.25-.25h1.49c.08,0,.14.02.19.06Z"/>
      <path class="cls-1" d="m159.81,152.47c.38-.65.9-1.16,1.56-1.53s1.37-.56,2.16-.56,1.49.19,2.15.56,1.17.89,1.55,1.53c.38.65.57,1.35.57,2.13s-.19,1.48-.57,2.12c-.38.64-.9,1.15-1.55,1.53s-1.37.56-2.14.56-1.5-.19-2.16-.56c-.65-.37-1.17-.88-1.56-1.53s-.57-1.35-.57-2.13c0-.77.19-1.48.57-2.13Zm1.73,3.26c.2.35.48.63.83.83.35.21.73.31,1.15.31s.8-.1,1.15-.31.63-.48.83-.83c.2-.35.3-.73.3-1.14s-.1-.8-.3-1.15c-.2-.35-.48-.63-.83-.84s-.74-.31-1.15-.31-.8.1-1.15.31c-.35.21-.62.48-.83.84s-.3.74-.3,1.15c0,.41.1.79.3,1.14Z"/>
    </g>
    <g>
      <path class="cls-1" d="m6.37,152.09c.48.3.85.71,1.12,1.24.27.53.4,1.12.4,1.77s-.14,1.24-.41,1.77c-.27.53-.65.94-1.12,1.24-.48.3-1.02.45-1.61.45-.48,0-.92-.1-1.32-.31-.4-.21-.73-.51-1-.89l-.14.89s-.02.06-.06.09c-.03.02-.07.03-.11.03h-.99c-.07,0-.12-.02-.16-.06s-.06-.1-.06-.17v-10.59c0-.07.02-.12.06-.16.04-.04.09-.06.16-.06h1.21c.07,0,.12.02.16.06.04.04.06.09.06.16v5.13c.25-.34.57-.6.96-.78.38-.18.8-.28,1.25-.28.6,0,1.14.15,1.61.45Zm-.99,4.64c.28-.17.51-.4.67-.69s.25-.61.25-.95-.08-.65-.25-.93c-.17-.29-.39-.51-.67-.68s-.59-.25-.93-.25-.67.08-.96.25c-.29.17-.52.39-.69.67s-.25.6-.25.94.08.67.25.95.4.52.69.69c.29.17.61.25.95.25s.65-.08.93-.25Z"/>
      <path class="cls-1" d="m14.77,151.88s.05.07.05.12c0,.03,0,.06-.02.09l-2.6,6.11-.02.04-1.33,3.17c-.05.12-.14.19-.26.19h-1.12c-.17,0-.26-.06-.26-.18,0-.04.01-.09.04-.17l1.36-3.31-2.5-5.85s-.02-.06-.02-.09c0-.05.02-.09.05-.12s.08-.04.13-.04h1.31c.07,0,.12.02.17.05s.09.08.11.14l1.6,4.3,1.59-4.3c.02-.06.06-.1.11-.14.05-.04.11-.05.17-.05h1.31s.09.01.13.04Z"/>
      <path class="cls-1" d="m16.34,158.44c-.16-.09-.29-.22-.38-.38-.09-.16-.14-.33-.14-.52s.05-.36.14-.52c.09-.16.22-.29.38-.38.16-.09.34-.14.53-.14s.36.05.52.14c.16.09.29.22.38.38.09.16.14.33.14.52s-.05.36-.14.52c-.09.16-.22.29-.38.38-.16.09-.33.14-.52.14s-.37-.05-.53-.14Z"/>
    </g>
    <path class="cls-1" d="m341.99,15.25v1.12h-2.24v5.59h-1.12v-5.59h-2.24v-1.12h5.59Zm1.12,0h1.4l1.68,2.91,1.68-2.91h1.4v6.71h-1.12v-4.96l-1.96,3.39-1.96-3.39v4.96h-1.12v-6.71Z"/>
  </g>
</svg>